PathFileType	4	(X/Y/Z)	D:\TRACE\spotREDO_2-26-24\spot_justArm_Motion_3_3-v60.trc
DataRate	CameraRate	NumFrames	NumMarkers	Units	OrigDataRate	OrigDataStartFrame	OrigNumFrames
100.00	100.00	      42	9	mm	100.00	3317	      6633
Frame#	Time	front left toe			Front right toe			aft left toe			aft right toe			Arm			FL body			FR body			AL Body			AR Body			
		X1	Y1	Z1	X2	Y2	Z2	X3	Y3	Z3	X4	Y4	Z4	X5	Y5	Z5	X6	Y6	Z6	X7	Y7	Z7	X8	Y8	Z8	X9	Y9	Z9	

3317	33.160	-209.82736	13.70227	-283.37744	284.39175	15.14648	-253.56136	-244.58084	32.00443	334.21820	243.94626	35.70338	364.74030	-68.94732	669.54211	-814.53180	-26.73581	532.44690	-329.50223	128.24380	539.67603	-322.26733	-76.45644	573.29785	552.05090	71.07249	576.38184	560.59381	
3318	33.170	-209.28004	13.57443	-283.48483	284.85098	14.94846	-253.51588	-244.33073	32.01877	334.07687	244.11623	35.94029	364.67844	-69.76746	671.76599	-811.42871	-26.16086	532.25671	-329.95978	129.06268	539.40448	-322.72253	-76.63484	573.38257	551.53424	70.79172	576.44879	560.42877	
3319	33.180	-208.64734	13.50867	-283.57837	285.11957	15.11259	-253.26877	-243.82376	31.94995	334.09988	244.71210	36.08039	364.74976	-71.36426	674.27673	-808.37439	-25.57985	532.16211	-330.26508	129.64465	539.21497	-322.87454	-76.80354	573.24738	551.06366	70.53594	576.27948	560.16199	
3320	33.190	-208.01071	13.57819	-283.71585	285.45770	14.34091	-253.73581	-243.42676	32.06937	334.01227	245.57549	36.29480	364.77106	-72.99638	677.16620	-805.90076	-24.49134	532.27716	-330.62036	130.59912	539.37616	-322.97556	-76.89983	573.00714	550.78107	70.44483	576.09332	560.03662	
3321	33.200	-207.25694	13.49377	-283.80316	286.39706	14.25627	-253.79901	-242.89075	32.02528	333.88293	245.88280	36.45770	364.65994	-79.25173	681.95917	-808.30396	-23.71515	532.69220	-330.83694	131.23154	539.56177	-323.05063	-76.84925	572.60175	550.51715	70.39040	575.67358	559.79211	
3322	33.210	-206.84145	13.31220	-283.92102	286.89249	14.11546	-253.88705	-242.23514	32.25644	333.93530	246.32181	36.52066	364.54868	-77.24722	683.04706	-802.66614	-23.07822	533.22772	-331.09796	131.93040	539.96442	-322.94897	-76.67443	572.37482	550.47748	70.59834	575.39984	559.65033	
3323	33.220	-206.34248	13.13542	-284.05765	287.58527	14.22263	-253.87054	-241.59752	32.37254	334.07199	246.52292	36.48829	364.49039	-78.98213	685.55273	-801.75134	-22.72718	533.65948	-331.04272	132.32523	540.54749	-323.06326	-76.26122	572.00922	550.55548	71.60643	574.66010	560.15332	
3324	33.230	-205.97237	13.05763	-284.08411	287.80783	14.16375	-254.09279	-241.31044	32.58787	333.99896	247.40898	36.66888	364.35092	-80.79327	687.79974	-801.31915	-22.77200	534.61536	-330.99286	132.41196	541.30902	-323.16925	-75.71651	571.58099	550.25177	72.12439	574.22687	559.68573	
3325	33.240	-205.59091	12.82226	-284.18307	288.08401	13.99573	-254.31937	-240.61122	32.93009	334.15027	248.12253	36.80046	364.29968	-82.14121	689.77179	-801.65747	-22.82468	535.38519	-330.93216	132.39438	541.74213	-322.86835	-74.46955	571.10797	550.84967	72.86640	573.80310	559.67365	
3326	33.250	-205.29694	12.62016	-284.23090	288.46844	14.09310	-254.41725	-239.68434	32.96072	334.11511	248.46358	36.83119	364.04492	-82.83791	691.09802	-801.74640	-23.28515	536.08496	-330.65781	132.00676	542.72882	-323.36984	-73.30637	570.68329	551.18958	74.04381	573.22461	559.81989	
3327	33.260	-204.81125	12.34586	-284.21887	289.09448	14.12335	-254.73105	-239.35345	33.43232	334.19855	248.98637	36.84974	363.77161	-83.29333	692.03351	-802.40344	-23.44712	536.75519	-330.53906	131.29317	543.49152	-323.50217	-72.15217	570.43018	551.60498	75.14840	572.93835	559.88123	
3328	33.270	-204.28799	12.05844	-284.19934	289.83017	14.62402	-254.44238	-238.41751	33.53477	334.21497	250.11792	37.30358	363.84052	-81.20413	692.51831	-801.57751	-23.99063	537.63782	-330.33716	130.77945	544.00574	-323.73367	-71.08054	570.19000	551.78864	76.94234	572.49280	560.55298	
3329	33.280	-203.74796	11.71043	-284.14798	290.57050	14.45303	-254.86700	-237.91817	33.71951	334.00504	250.89558	37.70176	363.89502	-81.84949	692.64264	-803.95374	-24.46602	538.10864	-330.05231	130.37840	544.40253	-323.82983	-69.86341	569.96680	552.02100	78.19513	572.43799	560.40295	
3330	33.290	-203.33981	11.52763	-284.04156	290.34271	14.05741	-255.32718	-237.21930	33.94136	334.03357	251.22954	37.71766	363.80542	-80.64838	692.11523	-804.03857	-24.77513	538.37689	-329.87445	130.00185	544.69806	-323.81177	-68.97288	570.01257	552.25122	78.62882	572.32611	559.96051	
3331	33.300	-202.85487	11.27312	-284.04965	290.85626	13.54481	-255.75159	-236.65425	34.36184	334.00580	251.56868	37.83929	363.52719	-78.55831	691.48694	-804.43610	-25.02324	538.49603	-329.79852	129.59395	544.99786	-323.97665	-68.18722	570.16168	552.37012	79.31480	572.44983	559.88306	
3332	33.310	-202.18112	10.96803	-284.15411	291.28400	13.34022	-255.90269	-236.31845	34.79604	333.73651	252.25110	38.16348	363.33081	-76.93754	690.66321	-805.09955	-25.09654	538.58398	-329.74353	129.55003	545.00043	-323.66953	-67.57944	570.28223	552.46222	79.78867	572.69257	559.76044	
3333	33.320	-201.59039	10.76061	-284.14517	292.20642	13.34638	-255.83168	-235.65190	34.96815	333.69702	253.23344	38.53972	363.39236	-74.55151	689.59167	-805.53204	-25.06285	538.59253	-329.77728	129.70026	545.01807	-323.72906	-67.29216	570.53204	552.44849	80.20539	572.94037	559.64343	
3334	33.330	-201.10974	10.63014	-284.35126	293.04266	13.27456	-255.90602	-235.06140	34.97664	333.61713	253.55746	38.77763	363.31018	-72.28474	688.25079	-805.52954	-24.70996	538.52075	-329.84003	130.11478	544.77753	-323.60455	-67.68642	570.71820	551.94830	80.25581	573.10834	559.63544	
3335	33.340	-200.33463	10.36592	-284.50418	293.83914	13.56783	-255.67882	-234.59138	35.02125	333.33737	253.88408	39.03164	363.17282	-70.53088	687.44879	-806.29254	-24.30844	538.33881	-330.04285	130.81708	544.46173	-323.70456	-67.55679	570.88306	552.03815	80.52872	573.21362	560.06934	
3336	33.350	-199.63452	10.25767	-284.65823	294.24207	13.19775	-255.63957	-234.22162	34.99143	333.18457	254.09233	39.24155	363.07333	-68.87634	686.36957	-806.31433	-23.68023	538.15247	-330.38724	131.47449	544.34729	-323.91354	-67.88869	571.12701	551.73761	80.23755	573.42383	560.01611	
3337	33.360	-199.02281	10.21407	-284.84833	294.98727	12.39856	-256.05923	-233.69327	34.98003	333.17102	254.88571	39.72569	363.03925	-67.69922	685.49292	-806.51477	-22.69994	537.75110	-330.67560	132.23808	544.04199	-324.04895	-68.31809	571.36798	551.28754	79.79173	573.66943	559.92755	
3338	33.370	-198.34050	10.04079	-285.08444	295.98703	12.34078	-255.84015	-233.02164	35.15851	332.95108	255.63991	40.13780	362.93356	-66.75061	684.67871	-806.70764	-21.75965	537.49152	-331.05142	133.45024	543.84326	-324.22278	-68.92541	571.73999	550.80737	79.03803	574.00543	559.39911	
3339	33.380	-197.51978	9.89330	-285.30914	296.70734	12.33026	-255.53667	-232.66356	35.33075	332.90039	256.17633	40.50041	362.86679	-65.84669	683.83789	-806.73645	-20.55437	537.15875	-331.31250	134.46596	543.40088	-324.21091	-69.08015	572.00989	550.61060	78.52026	574.31512	559.23206	
3340	33.390	-196.90547	9.62266	-285.46442	297.19760	12.02838	-255.66940	-232.02708	35.48079	332.89285	256.34320	40.60325	362.76028	-65.41484	683.35474	-806.65381	-19.72572	536.92279	-331.52411	135.61179	543.01141	-324.32837	-69.29646	572.36908	550.36670	78.24958	574.59106	559.12030	
3341	33.400	-196.26414	9.50866	-285.64484	297.82663	11.44924	-255.96829	-231.46382	35.55372	332.74939	256.80817	40.85054	362.73331	-63.86757	682.76239	-805.43774	-18.20748	536.40625	-331.70099	136.52104	542.60144	-324.31058	-69.34269	572.68640	550.14978	78.20578	574.75787	559.05542	
3342	33.410	-195.52206	9.32861	-285.74561	298.52045	11.45700	-255.80473	-230.58194	35.63794	332.67484	257.45493	41.02114	362.69867	-65.73401	682.41656	-806.64423	-17.30028	536.26288	-331.87946	137.74725	542.11694	-324.29810	-69.20906	572.90649	549.96039	78.34584	574.91107	558.93634	
3343	33.420	-194.76625	9.23932	-285.85001	299.34827	11.19765	-255.87247	-230.12218	35.85162	332.48611	258.34515	41.25528	362.77475	-66.26819	682.24219	-806.53082	-16.30579	536.12042	-332.03491	138.52307	541.95111	-324.39432	-68.80318	573.18292	549.75549	78.63558	575.02948	558.75745	
3344	33.430	-193.95532	9.02395	-285.86450	300.01505	11.27783	-255.98454	-229.43225	36.09013	332.34857	259.10339	41.51994	362.65512	-67.42643	682.19989	-806.39838	-15.45403	535.97955	-332.11731	139.41643	541.66199	-324.50281	-68.54803	573.34277	548.94415	79.08995	575.19824	558.47900	
3345	33.440	-193.38394	8.99204	-285.96365	300.62592	11.61089	-255.83574	-228.61389	36.30991	332.15387	259.43488	41.26516	362.35974	-68.11389	682.17389	-806.21063	-14.93786	535.69611	-332.25479	139.97539	541.42456	-324.55954	-67.80049	573.58136	549.14844	79.81860	575.45190	558.53607	
3346	33.450	-192.75365	8.89408	-285.98029	301.27872	11.20144	-256.08655	-227.84528	36.32541	332.16544	260.56693	41.54492	362.47321	-68.89023	682.01288	-806.17059	-14.43356	535.41669	-332.39346	140.43555	541.14813	-324.62668	-67.11979	573.75824	548.94916	80.97247	575.56476	558.98114	
3347	33.460	-192.17534	8.63936	-285.99268	302.04013	10.76565	-256.28647	-227.16333	36.61498	332.09933	261.53665	41.76828	362.54865	-69.40771	681.78967	-806.17151	-14.00504	535.12537	-332.48975	141.11325	540.82208	-324.90222	-66.06318	573.90814	549.00824	81.56641	575.72137	558.23181	
3348	33.470	-191.65663	8.54253	-286.09726	302.17203	10.71483	-256.35464	-226.36000	36.91082	332.02103	261.79770	41.88470	362.47748	-69.87357	681.82886	-805.86493	-13.64564	534.96198	-332.53699	141.53049	540.58624	-325.01617	-64.85519	574.12616	548.96606	82.52966	575.79346	558.14276	
3349	33.480	-191.09212	8.35757	-286.14691	302.84335	10.52660	-256.71112	-225.70117	37.14182	332.03949	262.71692	42.12846	362.24866	-70.58113	681.79858	-805.97900	-13.64322	534.86987	-332.61029	141.79445	540.46869	-325.21320	-63.91259	574.39825	549.09802	83.74865	575.92822	557.89288	
3350	33.490	-190.39787	8.05990	-286.04398	303.66257	10.64176	-256.82211	-225.01649	37.38702	332.01071	263.86432	42.28190	362.07993	-70.70062	681.74634	-806.01282	-13.40352	534.66547	-332.64252	141.86597	540.35748	-325.41138	-62.76849	574.47540	549.14978	84.68571	576.15546	557.64307	
3351	33.500	-189.73492	7.77946	-285.93976	304.35406	10.72977	-256.78268	-224.38544	37.44115	331.98315	264.11139	42.31129	361.75064	-70.62366	681.71515	-806.06854	-13.34679	534.37793	-332.63260	141.95615	539.91663	-325.33359	-61.70572	574.74182	549.03796	85.86664	576.48352	557.48199	
3352	33.510	-189.12941	7.51486	-285.90747	305.47876	11.18670	-256.33984	-223.39848	37.53116	331.90131	264.46722	42.29570	361.58435	-70.25078	681.68365	-806.27838	-13.30141	534.10187	-332.60452	142.10533	539.70233	-325.47430	-61.00770	574.78119	548.83191	86.72506	576.59399	557.22687	
3353	33.520	-188.49126	7.39578	-285.99033	305.26331	10.66393	-256.89755	-223.01331	37.90480	331.93307	265.57471	42.56016	361.48538	-69.55283	681.61316	-806.47791	-13.02358	533.88818	-332.64560	142.22066	539.71680	-326.00897	-60.04237	575.11029	548.82446	87.53780	576.84070	557.23029	
3354	33.530	-187.89560	7.24096	-286.11874	305.87875	10.26345	-257.25272	-222.34567	38.22038	331.92661	266.41174	42.88828	361.47583	-67.78824	681.56104	-805.46759	-12.76897	533.72980	-332.66705	142.52641	539.51324	-326.16516	-59.32078	575.41083	548.52991	88.43687	577.14124	557.08386	
3355	33.540	-187.40865	6.97569	-286.22583	306.54181	10.24839	-257.45477	-221.46970	38.28272	331.88739	266.86093	42.86399	361.50067	-68.05792	681.58160	-806.87695	-12.41654	533.62628	-332.72687	142.78017	539.31604	-326.28967	-58.16518	575.47229	548.80652	89.28398	577.24286	556.88684	
3356	33.550	-186.69812	6.78030	-286.25275	307.66891	10.19197	-257.59537	-220.90242	38.38190	331.83423	267.46832	43.13873	361.42197	-66.76390	681.54156	-807.08594	-11.96104	533.47528	-332.72882	143.18883	539.02808	-326.36646	-57.63044	575.80115	548.64166	89.79080	577.50647	556.75958	
3357	33.560	-186.07205	6.85434	-286.28171	308.18127	10.20768	-257.39706	-220.48427	38.50858	331.67209	268.12497	43.25097	361.42078	-65.51166	681.36407	-807.06445	-11.41978	533.29785	-332.76810	143.45753	538.84027	-326.52966	-57.37426	576.04156	548.53143	90.49601	577.49304	556.83154	
3358	33.570	-185.49445	6.82255	-286.48831	308.77832	9.99814	-257.44281	-219.89162	38.43729	331.57141	268.97977	43.50614	361.42871	-64.12488	681.22015	-807.52710	-11.01277	533.18420	-332.90704	144.03511	538.66357	-326.68677	-56.99685	576.23279	548.35156	90.95664	577.56152	556.64545	
